<svg width="152" height="30" viewBox="0 0 152 30" fill="none" xmlns="http://www.w3.org/2000/svg"><path fill-rule="evenodd" clip-rule="evenodd" d="M9.19078 15.67C8.94411 15.8246 8.69516 15.9496 8.44391 16.045C8.19266 16.1404 7.84787 16.2281 7.40952 16.31L6.53283 16.4738C5.71074 16.6188 5.12042 16.7961 4.76226 17.0042C4.15514 17.3588 3.85197 17.9077 3.85197 18.6515C3.85197 19.3142 4.03716 19.7934 4.40792 20.0877C4.7783 20.3831 5.22924 20.5304 5.75999 20.5304C6.60156 20.5304 7.37706 20.2854 8.08575 19.7957C8.79482 19.305 9.16329 18.4111 9.19078 17.1131V15.67ZM6.83522 13.8596C7.55193 13.7696 8.06511 13.6554 8.37364 13.5192C8.92768 13.2834 9.20451 12.9154 9.20451 12.4165C9.20451 11.8088 8.99221 11.3888 8.56723 11.1569C8.14224 10.9261 7.51909 10.8096 6.69738 10.8096C5.77487 10.8096 5.12155 11.0365 4.73819 11.4904C4.46403 11.8261 4.28113 12.2808 4.18987 12.8523H0.473093C0.554424 11.5542 0.916403 10.4873 1.55903 9.65229C2.58158 8.34575 4.33726 7.69229 6.82606 7.69229C8.4458 7.69229 9.88456 8.0146 11.1427 8.65883C12.4005 9.30345 13.0293 10.5188 13.0293 12.3077V19.115C13.0293 19.5869 13.0385 20.1584 13.0565 20.83C13.0836 21.3392 13.1599 21.6834 13.2863 21.865C13.4123 22.0469 13.6017 22.1958 13.8537 22.3142V22.8854H9.66385C9.54701 22.5861 9.46568 22.3054 9.42063 22.0415C9.37519 21.7781 9.3393 21.4796 9.31257 21.1438C8.77762 21.7238 8.16134 22.2188 7.46372 22.6269C6.6298 23.1077 5.68705 23.3481 4.63586 23.3481C3.29409 23.3481 2.18639 22.965 1.31198 22.1988C0.437201 21.4315 0 20.3446 0 18.9377C0 17.1131 0.70334 15.7923 2.11078 14.975C2.88209 14.5311 4.0169 14.2134 5.51446 14.0227L6.83522 13.8596Z" fill="white"></path><path fill-rule="evenodd" clip-rule="evenodd" d="M34.8684 8.07306C35.4992 8.32768 36.0712 8.77229 36.5852 9.40729C36.9995 9.9246 37.2786 10.5604 37.4229 11.3138C37.5126 11.8127 37.5581 12.5442 37.5581 13.5058L37.5314 22.8581H33.5843V13.4104C33.5843 12.8477 33.4942 12.3842 33.3144 12.0215C32.9715 11.3327 32.3407 10.9869 31.422 10.9869C30.3586 10.9869 29.6243 11.4315 29.2188 12.3211C29.0115 12.7934 28.9076 13.36 28.9076 14.0234V22.8581H25.0286V14.0234C25.0286 13.1431 24.9388 12.5031 24.7586 12.1034C24.434 11.3858 23.799 11.0292 22.8529 11.0292C21.7532 11.0292 21.0143 11.3858 20.6363 12.1034C20.429 12.5119 20.3251 13.1196 20.3251 13.9281V22.8581H16.4189V8.04614H20.1628V10.2111C20.6405 9.44037 21.0911 8.89037 21.5145 8.56345C22.2622 7.98306 23.2309 7.69229 24.4207 7.69229C25.5467 7.69229 26.457 7.94152 27.1508 8.44114C27.709 8.90383 28.1329 9.49806 28.4215 10.2246C28.9259 9.35306 29.5522 8.71306 30.3002 8.3046C31.0929 7.89652 31.976 7.69229 32.949 7.69229C33.5981 7.69229 34.2376 7.81921 34.8684 8.07306Z" fill="white"></path><path fill-rule="evenodd" clip-rule="evenodd" d="M45.0924 11.7396C44.5479 12.3046 44.2062 13.0708 44.0664 14.0362H50.7027C50.6324 13.0069 50.2903 12.2258 49.6763 11.6923C49.0623 11.1589 48.3009 10.8915 47.3918 10.8915C46.4032 10.8915 45.6365 11.1739 45.0924 11.7396ZM50.855 8.38845C51.8826 8.85191 52.7314 9.58383 53.4011 10.5834C54.004 11.4654 54.3954 12.4869 54.5745 13.6508C54.6784 14.3327 54.7207 15.3146 54.7016 16.5961H43.9713C44.0313 18.0858 44.5452 19.1292 45.5124 19.7281C46.1008 20.0996 46.8084 20.2861 47.6362 20.2861C48.5136 20.2861 49.2265 20.0592 49.7748 19.6054C50.0742 19.3596 50.3388 19.0196 50.5679 18.5838H54.5008C54.3969 19.4642 53.9208 20.3588 53.0727 21.2665C51.7527 22.7088 49.905 23.4304 47.53 23.4304C45.5693 23.4304 43.8392 22.8219 42.3405 21.605C40.8418 20.3881 40.0927 18.4073 40.0927 15.6638C40.0927 13.0934 40.7689 11.1223 42.1221 9.7496C43.4749 8.37806 45.231 7.69229 47.3903 7.69229C48.6725 7.69229 49.8275 7.92498 50.855 8.38845Z" fill="white"></path><path fill-rule="evenodd" clip-rule="evenodd" d="M64.7363 7.69998C64.786 7.7046 64.8959 7.71114 65.0677 7.72037V11.6958C64.8241 11.6684 64.608 11.65 64.4186 11.6415C64.2296 11.6327 64.0761 11.6281 63.9589 11.6281C62.4094 11.6281 61.3685 12.1365 60.837 13.1531C60.5396 13.7246 60.391 14.6058 60.391 15.7934V22.8869H56.5116V8.04691H60.1879V10.6334C60.7828 9.64498 61.3009 8.96806 61.7427 8.60537C62.4633 7.99729 63.4003 7.69229 64.5538 7.69229C64.626 7.69229 64.6867 7.69537 64.7363 7.69998Z" fill="white"></path><path fill-rule="evenodd" clip-rule="evenodd" d="M67.9666 22.8161H71.8727V7.69229H67.9666V22.8161Z" fill="white"></path><path fill-rule="evenodd" clip-rule="evenodd" d="M83.726 13.37C83.6539 12.8173 83.4687 12.3177 83.1705 11.8719C82.7371 11.2742 82.0643 10.9742 81.1517 10.9742C79.8512 10.9742 78.9615 11.6227 78.4827 12.9215C78.2299 13.6088 78.1035 14.5238 78.1035 15.665C78.1035 16.7504 78.2299 17.6242 78.4827 18.285C78.9432 19.5192 79.8107 20.1361 81.0841 20.1361C81.9875 20.1361 82.6286 19.8919 83.0082 19.4015C83.3873 18.9115 83.6176 18.2769 83.6989 17.4958H87.6322C87.5417 18.6758 87.1175 19.7919 86.3603 20.8446C85.1518 22.5423 83.3614 23.3904 80.9894 23.3904C78.6171 23.3904 76.8717 22.6827 75.7533 21.2665C74.6346 19.8508 74.0759 18.0146 74.0759 15.7588C74.0759 13.2138 74.6934 11.2327 75.9294 9.81691C77.1646 8.40075 78.8695 7.69229 81.0433 7.69229C82.8925 7.69229 84.4053 8.10998 85.5825 8.94537C86.7593 9.78075 87.4558 11.2561 87.6727 13.37H83.726Z" fill="white"></path><path fill-rule="evenodd" clip-rule="evenodd" d="M98.5397 15.67C98.2934 15.8246 98.0445 15.9496 97.7932 16.045C97.5416 16.1404 97.1976 16.2281 96.7588 16.31L95.8822 16.4738C95.0601 16.6188 94.4701 16.7961 94.1116 17.0042C93.5045 17.3588 93.2017 17.9077 93.2017 18.6515C93.2017 19.3142 93.3865 19.7934 93.7572 20.0877C94.1272 20.3831 94.5782 20.5304 95.1093 20.5304C95.9513 20.5304 96.7264 20.2854 97.4351 19.7957C98.1441 19.305 98.513 18.4111 98.5397 17.1131V15.67ZM96.185 13.8596C96.9017 13.7696 97.4145 13.6554 97.7234 13.5192C98.2767 13.2834 98.5539 12.9154 98.5539 12.4165C98.5539 11.8088 98.3416 11.3888 97.9166 11.1569C97.4916 10.9261 96.8685 10.8096 96.0467 10.8096C95.1242 10.8096 94.4709 11.0365 94.0876 11.4904C93.813 11.8261 93.6305 12.2808 93.5392 12.8523H89.8221C89.9042 11.5542 90.2658 10.4873 90.9088 9.65229C91.9309 8.34575 93.687 7.69229 96.1754 7.69229C97.7955 7.69229 99.2339 8.0146 100.492 8.65883C101.751 9.30345 102.38 10.5188 102.38 12.3077V19.115C102.38 19.5869 102.389 20.1584 102.407 20.83C102.434 21.3392 102.511 21.6834 102.637 21.865C102.763 22.0469 102.953 22.1958 103.205 22.3142V22.8854H99.0132C98.896 22.5861 98.815 22.3054 98.7704 22.0415C98.7246 21.7781 98.6894 21.4796 98.6619 21.1438C98.1274 21.7238 97.5107 22.2188 96.8131 22.6269C95.9792 23.1077 95.0364 23.3481 93.9848 23.3481C92.6438 23.3481 91.5358 22.965 90.6613 22.1988C89.7866 21.4315 89.3494 20.3446 89.3494 18.9377C89.3494 17.1131 90.0523 15.7923 91.4598 14.975C92.2315 14.5311 93.3663 14.2134 94.8642 14.0227L96.185 13.8596Z" fill="white"></path><path fill-rule="evenodd" clip-rule="evenodd" d="M117.621 8.89729C118.586 9.70037 119.068 11.0331 119.068 12.8931V22.8861H115.121V13.8596C115.121 13.08 115.019 12.4796 114.813 12.0627C114.437 11.3004 113.721 10.9188 112.666 10.9188C111.369 10.9188 110.479 11.4777 109.996 12.5931C109.746 13.1838 109.62 13.9365 109.62 14.8527V22.8861H105.768V8.07306H109.499V10.2381C109.992 9.47575 110.459 8.92652 110.899 8.59075C111.688 7.99152 112.689 7.69229 113.9 7.69229C115.417 7.69229 116.657 8.09345 117.621 8.89729Z" fill="white"></path><path fill-rule="evenodd" clip-rule="evenodd" d="M130.614 15.67C130.368 15.8246 130.118 15.9496 129.868 16.045C129.616 16.1404 129.271 16.2281 128.833 16.31L127.956 16.4738C127.135 16.6188 126.544 16.7961 126.185 17.0042C125.579 17.3588 125.276 17.9077 125.276 18.6515C125.276 19.3142 125.461 19.7934 125.831 20.0877C126.202 20.3831 126.653 20.5304 127.183 20.5304C128.025 20.5304 128.8 20.2854 129.509 19.7957C130.219 19.305 130.587 18.4111 130.614 17.1131V15.67ZM128.259 13.8596C128.975 13.7696 129.488 13.6554 129.797 13.5192C130.352 13.2834 130.628 12.9154 130.628 12.4165C130.628 11.8088 130.415 11.3888 129.991 11.1569C129.566 10.9261 128.943 10.8096 128.121 10.8096C127.198 10.8096 126.545 11.0365 126.161 11.4904C125.887 11.8261 125.705 12.2808 125.614 12.8523H121.897C121.978 11.5542 122.34 10.4873 122.983 9.65229C124.005 8.34575 125.761 7.69229 128.25 7.69229C129.869 7.69229 131.308 8.0146 132.566 8.65883C133.824 9.30345 134.453 10.5188 134.453 12.3077V19.115C134.453 19.5869 134.462 20.1584 134.48 20.83C134.507 21.3392 134.584 21.6834 134.71 21.865C134.836 22.0469 135.025 22.1958 135.277 22.3142V22.8854H131.088C130.97 22.5861 130.89 22.3054 130.844 22.0415C130.799 21.7781 130.763 21.4796 130.736 21.1438C130.201 21.7238 129.585 22.2188 128.887 22.6269C128.054 23.1077 127.111 23.3481 126.059 23.3481C124.718 23.3481 123.61 22.965 122.735 22.1988C121.861 21.4315 121.423 20.3446 121.423 18.9377C121.423 17.1131 122.126 15.7923 123.533 14.975C124.306 14.5311 125.44 14.2134 126.938 14.0227L128.259 13.8596Z" fill="white"></path><path fill-rule="evenodd" clip-rule="evenodd" d="M140.985 18.2158C141.066 18.9046 141.243 19.3958 141.514 19.6858C141.995 20.2027 142.881 20.4619 144.176 20.4619C144.937 20.4619 145.541 20.3484 145.989 20.1215C146.437 19.8946 146.661 19.555 146.661 19.1008C146.661 18.6642 146.481 18.3338 146.119 18.1069C145.759 17.88 144.415 17.4892 142.09 16.9358C140.416 16.5181 139.236 15.9961 138.551 15.3704C137.867 14.7527 137.524 13.8642 137.524 12.7019C137.524 11.3319 138.06 10.1538 139.13 9.16921C140.199 8.18345 141.705 7.69229 143.647 7.69229C145.489 7.69229 146.99 8.06114 148.15 8.80075C149.311 9.54075 149.977 10.8181 150.148 12.6334H146.296C146.243 12.1346 146.102 11.7404 145.877 11.4504C145.451 10.9231 144.728 10.6588 143.708 10.6588C142.867 10.6588 142.269 10.7908 141.912 11.0546C141.555 11.3173 141.376 11.6261 141.376 11.98C141.376 12.4254 141.566 12.7477 141.946 12.9469C142.325 13.1558 143.665 13.5131 145.968 14.0227C147.502 14.3861 148.653 14.9346 149.419 15.67C150.175 16.4134 150.554 17.3442 150.554 18.4608C150.554 19.9308 150.01 21.1311 148.922 22.0619C147.834 22.9911 146.152 23.4569 143.877 23.4569C141.557 23.4569 139.844 22.9642 138.737 21.98C137.631 20.9954 137.079 19.7408 137.079 18.2158H140.985Z" fill="white"></path><path fill-rule="evenodd" clip-rule="evenodd" d="M0.381836 3.81615H150.444V0H0.381836V3.81615Z" fill="white"></path><path fill-rule="evenodd" clip-rule="evenodd" d="M0.381836 29.9685H150.444V26.1538H0.381836V29.9685Z" fill="white"></path></svg>